# File created by Blade
# Date/Time:  Thu Sep 25 19:26:26 2014
# Frame Rate: 120.000 fps
#------------------------------------------------------
:FULLY-SPECIFIED
:DEGREES
1136
root 0.548065 31.278553 -15.264906 86.622938 27.045091 4.256641
Spine 41.079652 -0.783807 -2.815830
Head -6.747530 -16.204913 -24.600538
LeftShoulder 12.217951 -24.071692 30.091550
LeftArm 39.928439 -10.131276 -19.833318
LeftForeArm 2.525874 -0.000000 21.306293
LeftHand -22.815563 -0.000000 4.757584
LeftHandThumb1 -26.253704 0.000000 33.147579
RightShoulder 2.490552 54.593145 -44.608966
RightArm 35.811890 -17.618544 58.985979
RightForeArm -49.645017 -0.000000 55.126212
RightHand -7.961338 -0.000000 -28.604622
RightHandThumb1 -24.326973 -0.000000 -32.862282
LeftUpLeg -103.414960 5.724253 9.163933
LeftLeg 5.189491 -0.000000 -0.000000
LeftFoot 5.465366 2.845434 -26.403200
LeftToeBase 9.529199 -0.000000 -0.000000
RightUpLeg -90.524023 -26.284457 21.537361
RightLeg -3.434800 -0.000000 0.000000
RightFoot 6.735074 -22.936392 14.578249
RightToeBase 5.246268 -0.000000 -0.000000
1137
root 0.526563 31.273914 -15.300021 85.991918 26.972768 4.116890
Spine 41.110578 -0.830846 -3.003929
Head -7.346580 -16.069660 -24.173753
LeftShoulder 12.198784 -23.958169 30.077987
LeftArm 39.844014 -9.781917 -19.955286
LeftForeArm 2.293159 0.000000 21.031014
LeftHand -22.652065 -0.000000 3.808200
LeftHandThumb1 -26.253704 0.000000 33.147579
RightShoulder 2.541894 54.255484 -44.284382
RightArm 35.507134 -18.345428 59.492195
RightForeArm -49.924280 0.000000 54.926422
RightHand -8.375601 0.000000 -29.011157
RightHandThumb1 -24.326973 -0.000000 -32.862282
LeftUpLeg -102.804983 5.811432 9.287588
LeftLeg 5.021788 -0.000000 -0.000000
LeftFoot 5.526845 2.992040 -26.540630
LeftToeBase 9.556097 -0.000000 -0.000000
RightUpLeg -89.945207 -26.340953 21.181348
RightLeg -3.438642 -0.000000 0.000000
RightFoot 6.753656 -22.948552 14.610237
RightToeBase 5.269770 -0.000000 -0.000000
1138
root 0.517459 31.265617 -15.345384 85.532669 26.985380 4.185571
Spine 40.973168 -1.235351 -3.046858
Head -7.733677 -15.868656 -24.196494
LeftShoulder 12.156646 -23.705796 29.852754
LeftArm 39.811898 -9.471989 -20.168233
LeftForeArm 2.355574 -0.000000 20.836552
LeftHand -22.577689 -0.000000 2.796680
LeftHandThumb1 -26.253704 0.000000 33.147579
RightShoulder 2.764278 53.959739 -43.925498
RightArm 35.168607 -19.051778 60.108590
RightForeArm -49.957671 -0.000000 54.666681
RightHand -8.356067 -0.000000 -28.701823
RightHandThumb1 -24.326973 -0.000000 -32.862282
LeftUpLeg -102.294487 5.708910 9.600524
LeftLeg 4.828021 -0.000000 -0.000000
LeftFoot 5.598453 3.271022 -26.529735
LeftToeBase 9.492202 -0.000000 -0.000000
RightUpLeg -89.480910 -26.591719 20.862769
RightLeg -3.448896 -0.000000 0.000000
RightFoot 6.716958 -22.986676 14.752857
RightToeBase 5.228999 -0.000000 -0.000000
1139
root 0.499387 31.261687 -15.382804 84.941782 26.913540 4.102464
Spine 40.939410 -1.272777 -3.208869
Head -8.175807 -15.792719 -23.765375
LeftShoulder 12.239302 -23.460453 29.802916
LeftArm 39.772551 -9.250067 -20.429439
LeftForeArm 2.492511 -0.000000 20.736836
LeftHand -22.383890 0.000000 1.670257
LeftHandThumb1 -26.253704 0.000000 33.147579
RightShoulder 2.860383 53.491081 -43.627542
RightArm 34.692228 -19.527806 60.781884
RightForeArm -49.889264 -0.000000 54.606211
RightHand -8.208685 -0.000000 -28.341989
RightHandThumb1 -24.326973 -0.000000 -32.862282
LeftUpLeg -101.667287 5.735860 9.764234
LeftLeg 4.591558 -0.000000 -0.000000
LeftFoot 5.647136 3.495982 -26.695923
LeftToeBase 9.486816 -0.000000 -0.000000
RightUpLeg -88.922905 -26.696076 20.457815
RightLeg -3.421822 -0.000000 0.000000
RightFoot 6.668735 -23.038062 14.899461
RightToeBase 5.246376 -0.000000 -0.000000
